PathFileType	4	(X/Y/Z)	C:/Users/beibeiliu/ov580/test_trc\sequence.4_training_dense_right.trc
DataRate	CameraRate	NumFrames	NumMarkers	Units	OrigDataRate	OrigDataStartFrame	OrigNumFrames
120	120	23	19	mm	120	1	82
Frame#	Time	ThumbCMC			ThumbMCP			ThumbIP			ThumbTip			IndexMCP			IndexPIP			IndexTip			MiddleMCP			MiddlePIP			MiddleTip			RingMCP			RingPIP			RingTip			PinkyMCP			PinkyPIP			PinkyTip			BackHand1			BackHand2			BackHand3	
		X0	Y0	Z0	X1	Y1	Z1	X2	Y2	Z2	X3	Y3	Z3	X4	Y4	Z4	X5	Y5	Z5	X6	Y6	Z6	X7	Y7	Z7	X8	Y8	Z8	X9	Y9	Z9	X10	Y10	Z10	X11	Y11	Z11	X12	Y12	Z12	X13	Y13	Z13	X14	Y14	Z14	X15	Y15	Z15	X16	Y16	Z16	X17	Y17	Z17	X18	Y18	Z18	
0	0	53.1779	39.6487	84.865	33.3698	23.2777	63.9181	29.5118	15.1102	40.4533	29.976	6.997	20.8665	50.5279	48.0799	17.4033	45.0482	36.1941	-7.13288	37.4415	24.9805	-22.7873	74.5092	46.5149	8.90784	68.0845	37.2511	-14.4431	68.5713	20.6974	-36.9573	91.2984	41.3571	13.0683	89.6628	33.16	-9.64547	89.5483	22.4412	-29.8079	109.824	36.3001	24.1763	114.481	30.6645	6.20333	119.164	26.2332	-9.704	95.0604	55.5245	57.1294	97.218	61.4587	84.1641	71.0589	61.9428	73.6473	
1	0.00833333	50.5664	39.6893	78.8424	37.4211	23.8304	63.8176	31.4135	15.2472	38.0091	26.9749	4.50988	21.7434	50.6104	46.97	16.2136	42.9724	37.0968	-8.10058	41.1577	21.8606	-26.8726	70.8395	46.142	8.96557	66.8105	34.5871	-18.6794	67.718	20.1534	-39.817	88.9029	41.588	9.74652	94.4353	33.3114	-8.19216	88.4552	22.7532	-30.3497	109.028	36.092	23.7385	114.642	30.6858	4.07906	115.148	26.381	-14.302	94.6716	55.0528	56.0077	97.1957	60.4745	82.421	69.888	62.9164	69.2061	
2	0.0166667	50.2386	39.736	83.3963	38.0413	24.0614	60.6391	30.1261	14.9423	38.2029	29.9164	6.47552	20.2075	51.3961	46.7041	14.8225	43.2122	38.1217	-5.21273	42.523	23.7292	-25.0848	70.725	44.7631	3.26256	66.8991	34.7545	-18.7821	68.205	19.2893	-41.341	92.3187	41.1297	10.2691	90.7329	33.3248	-8.41889	89.6069	21.671	-29.3515	109.653	36.9592	21.3601	114.372	30.0092	6.25636	115.899	27.7454	-10.7976	95.87	55.4162	54.0628	100.232	61.2686	78.5553	72.5411	63.5191	69.5977	
3	0.025	49.3549	39.4019	80.5219	35.856	23.4115	62.9922	31.2668	15.5507	36.5009	28.7809	5.28279	18.5428	49.7632	47.3755	16.815	43.2727	35.7155	-8.61222	43.7675	23.1489	-26.4902	75.2556	45.6986	4.98815	70.9713	34.1425	-20.0069	70.9197	19.2495	-39.4155	90.9146	42.273	8.52036	91.6439	32.0303	-12.6444	87.7463	19.8654	-29.3783	109.82	37.1609	22.4674	113.069	30.7295	7.67478	116.969	25.3637	-14.7957	93.5421	57.4606	54.4885	99.3591	59.1043	81.836	68.6646	62.3452	66.9367	
4	0.0333333	48.2204	40.5629	78.8815	37.129	24.5707	61.16	31.1181	16.5928	36.9643	30.8668	6.882	16.816	51.1026	49.3977	12.6776	43.5656	41.2272	-6.96267	44.4565	26.6186	-26.6707	71.1493	49.7877	8.44407	68.9602	35.9651	-20.2095	67.9042	20.1633	-37.9273	90.7132	44.4176	13.294	88.0286	32.6879	-13.3995	85.7476	16.4454	-29.7855	111.193	38.9069	24.6572	113.097	31.5755	1.28444	113.166	20.9595	-16.0131	94.6108	57.8955	57.6097	102.159	61.7153	81.3822	74.4356	62.9431	70.1021	
5	0.0416667	49.7914	42.629	76.2437	40.1518	27.3702	58.7637	34.3036	18.9383	39.3259	32.9203	10.1807	18.1175	49.763	54.0304	13.7793	48.9154	45.6916	-10.9764	39.4349	31.5404	-30.6118	74.8145	53.7862	6.98546	72.7276	40.4085	-19.7124	67.8177	16.7922	-32.7581	90.2161	48.3164	8.72097	91.2382	34.7287	-12.5022	81.9412	13.7632	-20.5113	112.928	42.0037	19.781	110.653	34.4665	1.74331	106.428	13.0817	-15.1333	99.5484	59.5955	53.5207	100.064	62.8473	78.2148	74.67	65.716	65.473	
6	0.05	53.1094	46.5391	74.8718	37.6941	30.8688	57.5284	31.3675	21.9865	33.7382	31.8772	11.6395	14.8682	53.1458	60.796	12.1024	45.892	54.1749	-12.7217	46.8678	40.7691	-32.4154	73.1875	57.5146	4.33494	70.5043	38.3033	-19.0053	66.8603	7.81135	-18.641	94.8004	50.0595	6.64803	90.2214	30.1371	-10.6448	81.1051	6.44619	-5.76655	110.142	44.5689	20.5088	108.699	27.0072	0.721625	93.437	5.11887	1.62138	97.949	64.8272	55.4361	99.4148	66.1382	79.6247	74.0514	69.619	65.1745	
7	0.0583333	52.4358	49.2251	77.3727	39.1684	33.4002	54.8074	33.9956	24.5651	32.5304	34.8941	14.5131	10.3899	53.0296	66.9076	10.8998	51.0235	59.5024	-15.622	46.1604	49.0569	-36.8769	74.9875	54.1606	1.55375	68.7291	29.1315	-13.4481	66.4279	1.37032	6.19077	93.8592	44.6347	5.36343	86.429	19.7255	-2.1909	74.3529	5.61819	15.8831	108.876	42.4185	19.5476	100.42	22.8496	6.03679	85.0011	4.71045	22.4995	98.2202	68.1434	49.709	101.537	68.6019	80.3505	73.5738	73.7261	67.3345	
8	0.0666667	54.7794	50.5587	71.2329	39.9409	32.9248	53.5304	37.5919	24.6437	32.6367	38.0744	13.3337	10.9527	55.5501	67.9711	9.18227	50.9422	64.9825	-14.1569	49.322	58.0851	-33.4162	74.6244	51.0989	3.09723	66.77	20.2252	-3.41613	63.6083	6.13164	19.0586	89.1655	42.412	9.97898	80.2639	16.3314	8.85702	74.0854	9.55923	38.1702	106.067	35.9098	18.017	90.8847	15.6746	17.9435	84.1297	10.5081	40.8553	103.039	67.5794	49.7231	104.66	67.6567	76.4793	77.5826	73.1149	67.2851	
9	0.075	52.3228	50.2989	75.1254	40.4876	30.9323	51.0414	38.8037	22.4612	30.0975	44.4839	11.8239	6.91775	58.0439	68.2352	8.50759	50.2785	65.8008	-10.5305	49.0849	60.3322	-36.0596	69.8593	46.8562	2.23646	64.8716	16.4505	4.30103	62.4749	9.67681	31.7892	88.3779	37.2726	12.0027	76.9959	13.427	18.5492	73.3166	16.2431	47.1479	104.985	29.9122	19.8355	88.5263	12.3007	27.8533	80.2575	19.7312	51.2526	98.1538	65.2814	51.7366	104.265	65.9522	74.8972	79.9379	74.059	67.3347	
10	0.0833333	55.0244	50.3158	70.7379	39.2263	30.1172	47.3874	39.2762	18.3828	26.5158	52.2161	8.64976	6.46536	57.3347	68.2205	11.3807	51.5682	65.384	-15.2388	54.2507	62.2613	-34.3388	72.5581	42.8132	4.07677	67.7684	14.6202	6.0911	66.6438	13.8571	38.3336	87.9559	29.8996	12.4261	77.2842	10.3017	25.3206	75.3802	19.6779	52.2569	104.169	25.6081	22.6489	87.6197	11.5028	34.1273	83.331	26.1711	58.424	99.5498	64.0469	52.3903	104.223	66.1123	78.5631	79.247	70.835	66.799	
11	0.0916667	53.9898	47.4315	74.2966	44.5485	29.1246	49.7516	43.679	15.9772	23.6301	56.8624	4.01408	5.3796	56.522	65.6758	8.15518	55.3645	62.9126	-15.4366	53.2463	59.7072	-37.7606	71.4494	42.4637	6.52932	66.6363	11.0341	10.3374	64.7839	15.1664	41.7667	87.9145	27.6522	13.4451	78.8667	8.04127	28.4583	76.6377	22.8175	54.3315	98.2454	22.9174	23.1352	87.2013	9.31015	40.3245	87.0998	25.6021	60.0313	101.635	61.8392	46.7678	103.541	63.802	76.5135	75.3963	70.4002	62.3517	
12	0.1	51.9195	44.2237	73.826	44.6071	24.3979	50.04	44.8223	12.1133	29.9564	56.5665	1.04453	9.92726	55.8167	62.7858	6.42984	55.6238	58.2005	-14.6269	50.5365	55.8575	-32.7323	70.4472	35.2439	4.04153	69.5419	7.21027	14.7712	69.0562	14.6085	42.9932	86.9477	23.6724	14.6054	80.197	4.45334	33.5545	75.907	21.1265	55.3889	101.609	18.9551	23.732	87.5393	7.60107	39.8573	85.8039	25.1834	58.8578	100.26	61.721	48.6919	102.878	61.0619	76.2411	76.2232	69.4711	66.4465	
13	0.108333	56.0747	43.0362	71.5164	44.4445	21.8216	50.0545	46.6624	11.9258	29.0905	56.3548	-0.776457	11.7812	60.0273	59.2935	9.9653	57.566	56.3362	-13.7381	52.8007	53.3209	-37.7705	77.0587	35.9794	6.89708	70.1383	6.68892	11.5728	70.376	14.8437	45.4478	89.9252	20.2041	15.3685	76.7284	5.80682	30.8442	77.962	15.8099	54.9913	105.547	19.5812	25.3033	89.5676	5.63612	42.371	85.0657	21.1545	57.8413	100.351	59.2227	52.6429	103.196	60.2699	76.0937	75.7034	68.1255	67.3263	
14	0.116667	54.6288	42.8301	71.7633	41.5357	21.1765	51.6185	45.8872	11.6026	29.1228	60.4274	-0.522798	7.62749	58.7332	61.2161	6.78361	58.5644	56.0567	-15.7508	53.1654	53.9963	-34.915	72.9732	35.4819	7.10258	71.0035	7.27212	10.9922	69.3269	13.8205	44.5152	91.8013	21.5013	16.2482	78.7401	3.41351	34.4085	78.1754	19.8759	56.9853	104.669	20.2652	26.1631	92.9266	2.46934	40.1798	87.3134	22.4932	61.1376	104.213	57.5779	51.5721	102.32	60.7571	78.8998	76.9385	66.0265	63.8698	
15	0.125	54.0938	44.6985	70.8514	45.2714	23.4305	50.0339	46.1585	12.5703	28.365	59.68	1.91337	9.88315	60.4179	63.5024	7.72935	58.1867	59.375	-15.8938	55.1343	58.0948	-35.5479	75.6077	35.4317	5.36597	67.889	8.71458	13.4383	68.2354	13.4465	42.6671	88.8921	24.6948	14.886	83.9464	3.39788	29.2799	81.0695	17.8359	56.4405	106.52	21.0838	24.9503	93.7805	4.87281	38.8246	88.0544	21.7001	59.587	107.369	59.7325	52.6579	107.581	61.6249	76.7414	79.219	66.8838	67.4059	
16	0.133333	60.0962	46.6975	70.5763	47.0135	26.4635	46.618	53.1	17.6151	23.0704	65.5251	5.73516	6.04948	65.4914	67.6634	6.3499	62.8962	65.5613	-15.0648	65.9681	63.817	-38.3904	79.9523	43.1616	5.48686	72.6313	13.957	8.411	76.196	15.5193	39.961	95.1376	32.2249	15.5642	84.084	8.51976	29.1436	81.673	21.4391	54.5851	111.946	26.2094	24.6698	94.2775	9.88868	38.3161	90.2968	25.6825	58.2103	108.41	63.1134	53.8115	109.745	63.6414	80.8957	82.9066	68.8175	68.1197	
17	0.141667	60.1368	51.7526	66.4495	54.6568	31.7295	41.4394	54.2528	20.6084	22.1334	67.7609	10.7461	4.34865	74.741	73.1553	4.75922	74.4717	72.1707	-16.8376	74.9691	71.1848	-37.3336	87.8416	45.1132	2.42178	79.8112	17.3457	8.24148	75.5073	21.3009	38.1331	98.3348	34.9793	12.3221	89.6743	12.119	28.5268	83.8717	24.181	49.9518	112.419	28.9396	22.5866	98.4711	13.7424	36.8086	94.9954	24.8489	58.7218	113.492	67.0094	53.201	111.939	67.0309	82.4957	83.3125	73.8427	66.715	
18	0.15	60.9797	56.0722	67.2584	57.1154	36.8735	38.0293	58.2525	25.1119	18.9747	74.0071	14.5414	-0.937084	77.5476	79.1629	5.17162	81.0323	78.6552	-15.9842	86.0048	79.039	-41.0404	91.2917	51.7193	-0.838362	87.7449	24.7997	1.60551	84.7243	25.8004	36.1188	109.99	41.0989	12.5042	95.1486	18.1332	20.342	88.7919	28.2652	47.8353	120.451	36.6092	22.7486	102.377	18.8219	33.8151	98.9126	28.3128	53.609	113.373	72.4614	50.9061	111.061	69.913	79.0859	89.8015	78.9224	64.1963	
19	0.158333	65.2926	60.2174	61.104	63.7314	41.4705	35.1201	66.4315	30.3361	17.7372	80.9841	18.3201	-1.75911	83.1744	81.203	4.68448	86.0286	82.3739	-19.3821	87.4066	83.5038	-40.3112	102.045	54.0708	-1.7695	93.1944	27.2098	1.53882	87.0123	29.596	33.9826	112.903	41.7909	9.04389	97.6555	22.5978	19.7308	93.2223	33.4103	47.1338	124.497	41.81	22.7396	109.635	22.1198	30.462	98.5931	36.7854	52.1461	116.986	76.9433	47.625	116.365	75.9233	75.1987	93.4664	82.5776	63.7333	
20	0.166667	70.7794	63.1612	57.9864	64.0316	42.7783	37.8022	66.1393	28.2243	15.219	86.8096	20.5455	1.84281	90.1021	81.0378	0.257628	87.7982	81.2789	-22.6936	91.0497	79.8793	-44.3316	101.857	58.6825	-1.05293	96.9821	28.1367	-1.06305	86.5471	32.1611	33.736	114.905	44.2377	8.70314	100.611	23.9321	21.6727	98.1332	31.384	46.2276	130.199	39.6762	22.2026	115.166	23.3602	31.7627	104.669	36.2481	53.9487	124.003	79.2944	50.7458	119.667	81.166	76.4129	91.2084	86.7869	55.1942	
21	0.175	68.2086	66.8753	57.1173	66.0731	42.5661	37.1253	66.6256	25.9714	18.4562	83.6442	13.9182	7.8983	88.064	75.7221	-5.84874	86.9465	72.5366	-23.1133	90.84	65.7984	-49.5778	102.319	51.1142	-1.33637	91.515	23.5188	6.76352	87.4699	31.781	37.6261	116.721	39.1164	11.2729	103.81	22.1121	24.0457	96.7651	32.2575	50.0049	127.724	36.4513	23.997	111.305	24.9442	36.0392	101.893	39.9346	54.6756	118.428	82.4417	47.7847	117.393	85.182	73.2934	95.1554	89.7838	55.7505	
22	0.183333	67.1884	70.9994	58.4926	60.9091	44.7219	45.8496	64.1015	24.6846	25.8297	80.1852	8.51323	17.8661	83.4887	66.8821	-5.87394	83.597	55.2826	-24.6318	85.7537	44.579	-43.2619	100.575	44.4672	5.52251	90.0103	17.6204	15.7042	83.2503	34.0508	45.3157	113.613	35.7194	18.2954	96.5139	17.9163	32.9325	92.3183	33.3601	57.6545	119.931	32.7014	28.9939	107.619	21.2543	45.0402	95.2437	42.5854	58.5486	118.093	79.4968	40.9809	114.777	88.3827	71.7112	93.7998	89.5303	49.1987	
